# xmcd
#
# Track frame offsets:
#	212
#	23845
#	46407
#	66067
#	84495
#	96652
#	125457
#	156072
#	191740
#	223702
#	241997
#	266442
#	288797
#	312965
#
# Disc length: 4437
#
# Revision: 2
# Processed by: cddbd v1.5.1PL0 Copyright (c) Steve Scherf et al.
# Submitted via: ExactAudioCopy v0.95a5
# Normalized: r1:DSETVAR1
#
DISCID=c411530e
DTITLE=Various Artist - Rebirth Of The Blues
DYEAR=1995
DGENRE=Blues
TTITLE0=B.B. King - The Blues Come Over Me
TTITLE1=Robert Cray - 1040 Blues (I Hate Taxes)
TTITLE2=Buddy Guy - Someone Else Is Steppin' In (Slippin' Out, Slippin' In)
TTITLE3=Otis Grand - No Reason
TTITLE4=Tutu Jones - I'm For Real
TTITLE5=Luther Allison - Bad Love
TTITLE6=Tab Benoit - Cherry Tree Blues
TTITLE7=Otis Rush - As The Years Go Passing By
TTITLE8=Roben Ford and The Blue Line - Mistic Mile
TTITLE9=Joe Louis Walker - Alone
TTITLE10=Joanna Connor featuring Luther Allison - Slipping Away
TTITLE11=Otis Clay - Gonna Take My Heart's Advice
TTITLE12=John Mayall - Undercover Agent For The Blues
TTITLE13=Pop Staples - Hope In A Hopeless World
EXTD=
EXTT0=
EXTT1=
EXTT2=
EXTT3=
EXTT4=
EXTT5=
EXTT6=
EXTT7=
EXTT8=
EXTT9=
EXTT10=
EXTT11=
EXTT12=
EXTT13=
PLAYORDER=
